HIERARCHY
ROOT hip
{
	OFFSET 0.000000 0.000000 0.000000 
	CHANNELS 6 Xposition Yposition Zposition Xrotation Zrotation Yrotation
	JOINT abdomen
	{
		OFFSET 0.000000 3.402643 0.000000 
		CHANNELS 3 Xrotation Zrotation Yrotation
		JOINT chest
		{
			OFFSET 0.000000 8.438565 -0.680529 
			CHANNELS 3 Xrotation Zrotation Yrotation
			JOINT neck
			{
				OFFSET 0.000000 10.207942 -0.272212 
				CHANNELS 3 Xrotation Zrotation Yrotation
				JOINT head
				{
					OFFSET 0.000000 3.130431 0.000000 
					CHANNELS 3 Xrotation Zrotation Yrotation
					End Site
					{
						OFFSET 0.000000 3.130435 0.000000 
					}
				}
			}
			JOINT lCollar
			{
				OFFSET 3.470700 6.669187 -0.816635 
				CHANNELS 3 Yrotation Zrotation Xrotation
				JOINT lShldr
				{
					OFFSET 3.198488 0.000000 0.000000 
					CHANNELS 3 Zrotation Yrotation Xrotation
					JOINT lForeArm
					{
						OFFSET 10.139888 0.000000 0.000000 
						CHANNELS 3 Yrotation Zrotation Xrotation
						JOINT lHand
						{
							OFFSET 8.370511 0.000000 0.000000 
							CHANNELS 3 Zrotation Yrotation Xrotation
							End Site
							{
								OFFSET 4.083176 0.000000 0.000000 
							}
						}
					}
				}
			}
			JOINT rCollar
			{
				OFFSET -3.470700 6.669187 -0.816635 
				CHANNELS 3 Yrotation Zrotation Xrotation
				JOINT rShldr
				{
					OFFSET -3.198488 0.000000 0.000000 
					CHANNELS 3 Zrotation Yrotation Xrotation
					JOINT rForeArm
					{
						OFFSET -10.139888 0.000000 0.000000 
						CHANNELS 3 Yrotation Zrotation Xrotation
						JOINT rHand
						{
							OFFSET -8.370511 0.000000 0.000000 
							CHANNELS 3 Zrotation Yrotation Xrotation
							End Site
							{
								OFFSET -4.083176 0.000000 0.000000 
							}
						}
					}
				}
			}
		}
	}
	JOINT lThigh
	{
		OFFSET 5.308129 -1.633274 1.361059 
		CHANNELS 3 Xrotation Zrotation Yrotation
		JOINT lShin
		{
			OFFSET -2.041588 -20.007561 0.000000 
			CHANNELS 3 Xrotation Zrotation Yrotation
			JOINT lFoot
			{
				OFFSET 0.000000 -19.190928 -1.224953 
				CHANNELS 3 Xrotation Yrotation Zrotation
				End Site
				{
					OFFSET 0.000000 -2.449906 4.627600 
				}
			}
		}
	}
	JOINT rThigh
	{
		OFFSET -5.308129 -1.633274 1.361059 
		CHANNELS 3 Xrotation Zrotation Yrotation
		JOINT rShin
		{
			OFFSET 2.041588 -20.007561 0.000000 
			CHANNELS 3 Xrotation Zrotation Yrotation
			JOINT rFoot
			{
				OFFSET 0.000000 -19.190928 -1.224953 
				CHANNELS 3 Xrotation Yrotation Zrotation
				End Site
				{
					OFFSET 0.000000 -2.449906 4.627600 
				}
			}
		}
	}
}
MOTION
Frames: 20
Frame Time: 0.016667
-0.298148 44.827267 -1.888744 -3.869730 2.075340 -6.751590 -20.982300 -1.323480 0.308665 15.956900 0.369899 -0.068821 7.581518 1.467171 0.459783 11.475392 0.115176 1.025149 2.000000 -2.000000 0.000000 -78.462898 -5.267960 -165.261993 127.392998 -0.125891 0.126177 0.079236 -0.095510 -169.225998 -2.000000 2.000000 0.000000 77.101700 -25.993299 -155.942993 -105.508003 0.180904 0.112573 -0.057176 0.029718 -147.595993 -5.646255 1.561945 -6.771335 37.329601 -10.123980 -1.832904 7.942982 10.366138 6.782539 -19.286114 -2.355281 23.274628 47.960152 15.874529 4.658547 5.429365 -7.721294 -7.651979 
-0.480956 44.880764 -1.766812 -3.849670 1.851280 -6.003390 -20.893400 -1.239960 0.086443 16.005800 0.330985 -0.153297 7.179257 1.501276 0.319823 11.384746 0.146042 0.935315 2.000000 -2.000000 0.000000 -78.598801 -3.957260 -164.347000 127.978996 -0.124706 0.125262 0.077596 -0.083094 -168.113007 -2.000000 2.000000 0.000000 76.593300 -25.720400 -155.697998 -105.742996 0.180404 0.112434 -0.057273 0.030228 -147.781006 -6.561017 2.544283 -6.567105 39.687374 -10.920665 -2.233267 6.202643 13.233908 7.037984 -18.101101 -1.742287 23.386333 45.573364 15.078732 4.061089 6.670811 -6.461802 -7.204156 
-0.671223 44.655174 -1.711362 -4.083310 1.431900 -5.170540 -20.452499 -1.086490 -0.032639 16.328100 0.233737 -0.183297 6.340339 1.668058 0.055410 11.180258 0.229724 0.795674 2.000000 -2.000000 0.000000 -78.812798 -3.007600 -163.304001 128.046997 -0.124568 0.125154 0.076462 -0.081191 -167.322006 -2.000000 2.000000 0.000000 76.221397 -24.616100 -156.076996 -106.133003 0.179572 0.112196 -0.056996 0.028750 -147.244003 -7.787886 4.152075 -6.067175 43.515354 -12.182553 -2.962635 4.857111 14.752981 7.741906 -16.810097 -1.255723 23.002953 44.188210 14.582128 3.731024 6.639200 -6.281843 -7.018479 
-0.861491 44.429592 -1.655912 -4.326860 1.022470 -4.335160 -20.011900 -0.941131 -0.145737 16.660101 0.126660 -0.213705 5.494678 1.842357 -0.203892 10.975821 0.313450 0.655512 2.000000 -2.000000 0.000000 -79.016998 -2.057980 -162.270996 128.115997 -0.124430 0.125046 0.075341 -0.079249 -166.520996 -2.000000 2.000000 0.000000 75.839798 -23.511700 -156.451004 -106.524002 0.178741 0.111953 -0.056738 0.027296 -146.716995 -8.990016 5.741752 -5.650403 47.458778 -13.408504 -3.767791 3.367713 16.290888 8.469140 -15.533761 -0.752838 22.628134 42.806976 14.085499 3.412691 6.585371 -6.093197 -6.830142 
-1.061908 43.915115 -1.631489 -4.658610 0.759203 -3.889980 -19.786699 -0.747342 0.009401 16.552700 0.077934 -0.112877 4.960688 2.168188 -0.602834 10.873736 0.454534 0.502487 2.000000 -2.000000 0.000000 -79.328598 -0.688248 -161.151001 127.647003 -0.125376 0.125782 0.074737 -0.078177 -166.082001 -2.000000 2.000000 0.000000 75.330597 -22.027000 -156.623001 -106.358002 0.179094 0.112057 -0.056656 0.026811 -146.541000 -10.506282 7.408375 -5.334484 52.116364 -14.789190 -4.830796 3.160964 15.798030 9.141743 -14.549727 -0.605233 22.171837 42.777351 14.046054 3.413771 3.541487 -4.352320 -7.295112 
-1.262322 43.400784 -1.607055 -4.990420 0.496159 -3.441760 -19.551701 -0.556668 0.156233 16.445299 0.038962 -0.012566 4.433651 2.481690 -1.000655 10.785237 0.596542 0.338306 2.000000 -2.000000 0.000000 -79.610901 0.691229 -160.031006 127.178001 -0.126328 0.126510 0.074141 -0.077100 -165.641998 -2.000000 2.000000 0.000000 74.821602 -20.552000 -156.796005 -106.202003 0.179427 0.112154 -0.056574 0.026325 -146.365005 -11.987998 9.018189 -5.090422 56.692444 -16.055237 -5.976449 3.090346 15.331053 9.686942 -13.504180 -0.458328 21.723339 42.690060 13.989435 3.398289 0.511004 -2.593619 -7.670095 
-1.440715 42.779316 -1.580038 -5.400450 0.262502 -3.423250 -19.375000 -0.347472 0.463732 16.181601 -0.068160 0.171230 3.986840 3.005805 -1.410164 10.711648 0.830198 0.217350 2.000000 -2.000000 0.000000 -80.050003 2.255010 -159.457993 125.987000 -0.128774 0.128326 0.074010 -0.076860 -165.544998 -2.000000 2.000000 0.000000 74.361298 -18.784100 -156.929001 -106.133003 0.179572 0.112196 -0.056701 0.027080 -146.639008 -13.399519 10.621920 -4.946428 61.289597 -17.196793 -7.213430 3.429684 13.650241 10.194813 -12.959002 -0.274591 21.205746 43.370327 14.200927 3.563675 -2.890980 -1.299312 -7.982578 
-1.619097 42.157986 -1.553009 -5.820310 0.019431 -3.400420 -19.197800 -0.150748 0.765776 15.917900 -0.165472 0.355223 3.531326 3.504256 -1.810803 10.632328 1.054890 0.087845 2.000000 -2.000000 0.000000 -80.469597 3.809030 -158.884995 124.794998 -0.131257 0.130090 0.073866 -0.076596 -165.436996 -2.000000 2.000000 0.000000 73.891403 -17.006399 -157.070999 -106.065002 0.179718 0.112238 -0.056828 0.027808 -146.901993 -14.690383 12.166361 -4.833764 65.757469 -18.218735 -8.501760 3.850371 12.014740 10.616638 -12.401402 -0.079673 20.719925 43.952576 14.391505 3.700733 -6.229276 -0.012672 -8.204416 
-1.746927 41.558315 -1.582836 -6.337890 0.029118 -4.104800 -18.921499 0.062799 1.196160 15.605500 -0.097292 0.584600 3.176182 3.740828 -1.971236 10.598030 1.134831 0.038789 2.000000 -2.000000 0.000000 -81.114799 5.399800 -159.348007 122.608002 -0.135910 0.133194 0.073971 -0.076788 -165.514999 -2.000000 2.000000 0.000000 73.284203 -14.193800 -157.113998 -105.878998 0.180113 0.112351 -0.057071 0.029153 -147.389999 -15.592878 13.387885 -4.094163 69.571907 -19.028727 -9.637197 3.979413 11.492887 10.933775 -12.194884 -0.152541 20.085981 45.059383 14.760534 3.967431 -9.350477 0.020748 -8.556501 
-1.874745 40.958767 -1.612683 -6.865240 0.029087 -4.817960 -18.643999 0.276481 1.626980 15.302700 -0.038898 0.823889 2.822463 3.953476 -2.135855 10.563797 1.215912 -0.000747 2.000000 -2.000000 0.000000 -81.769897 6.980780 -159.820007 120.430000 -0.140656 0.136105 0.074062 -0.076956 -165.584000 -2.000000 2.000000 0.000000 72.687103 -11.381200 -157.175003 -105.694000 0.180508 0.112463 -0.057320 0.030470 -147.869003 -16.449589 14.584851 -3.381187 73.536209 -19.767971 -10.890030 3.991962 11.015847 11.190540 -11.922791 -0.245182 19.477465 46.177185 15.135533 4.250211 -12.515223 0.088589 -8.920322 
-1.954225 40.549225 -1.653418 -7.305340 0.765223 -6.103950 -18.424299 0.166471 2.084140 15.029300 0.126363 1.013160 2.509575 3.746935 -1.821082 10.431736 1.093325 0.094147 2.000000 -2.000000 0.000000 -82.426102 9.301670 -161.300003 118.038002 -0.145994 0.139093 0.075111 -0.078845 -166.354996 -2.000000 2.000000 0.000000 72.519600 -7.953920 -156.962006 -105.478996 0.180967 0.112591 -0.057462 0.031194 -148.132996 -16.705238 14.715883 -1.766727 75.853523 -20.179945 -11.631403 3.599502 12.057734 11.282018 -11.989944 -1.011800 19.769217 47.243500 15.478945 4.513754 -14.781347 0.064728 -9.254506 
-2.033692 40.139809 -1.694152 -7.756580 1.499830 -7.411230 -18.203600 0.055797 2.539360 14.755800 0.281753 1.201850 2.193044 3.532001 -1.502321 10.299706 0.971909 0.198758 2.000000 -2.000000 0.000000 -83.150902 11.602900 -162.817993 115.644997 -0.151451 0.141855 0.076186 -0.080719 -167.126999 -2.000000 2.000000 0.000000 72.372101 -4.526640 -156.748001 -105.253998 0.181447 0.112723 -0.057607 0.031918 -148.395996 -16.976152 14.831883 -0.174174 78.160378 -20.579268 -12.356926 3.237055 13.017636 11.348516 -12.038421 -1.775199 20.034206 48.231010 15.774351 4.757954 -16.968149 0.075083 -9.562539 
-2.049779 40.060802 -1.666101 -7.637860 0.987258 -8.462440 -18.112400 0.145892 2.724110 14.804700 -0.058299 1.334000 1.679655 3.664968 -1.309493 10.126757 1.024722 0.289157 2.000000 -2.000000 0.000000 -83.641602 14.138600 -164.317993 114.317001 -0.154529 0.143289 0.077483 -0.082907 -168.035004 -2.000000 2.000000 0.000000 72.762199 -1.529050 -156.537003 -106.181999 0.179468 0.112166 -0.057483 0.031302 -148.171997 -17.329554 15.856981 0.820112 79.037216 -20.744955 -12.655252 2.633163 13.955646 11.422349 -12.059439 -1.074746 20.560230 47.999180 15.702530 4.717632 -17.308603 0.037418 -9.495513 
-2.065866 39.981770 -1.638060 -7.519790 0.474400 -9.515750 -18.020901 0.230136 2.921060 14.863100 -0.398416 1.455740 1.169534 3.804406 -1.099704 9.949618 1.104852 0.378366 2.000000 -2.000000 0.000000 -84.220398 16.664301 -165.858994 112.999001 -0.157616 0.144642 0.078800 -0.085050 -168.932999 -2.000000 2.000000 0.000000 73.152603 1.458710 -156.296005 -107.110001 0.177499 0.111577 -0.057367 0.030711 -147.957001 -17.663734 16.882225 1.848956 79.897682 -20.866020 -12.927972 2.043090 14.865125 11.492890 -12.104692 -0.381628 21.132742 47.794086 15.647689 4.674130 -17.624132 -0.023028 -9.440710 
-1.997093 40.277107 -1.599968 -7.130290 1.124050 -9.710890 -18.229099 -0.103024 2.838640 14.706800 -0.534313 1.382870 0.825318 3.729577 -1.148572 9.816949 1.096884 0.311705 2.000000 -2.000000 0.000000 -84.554802 19.035200 -166.792999 112.911003 -0.157823 0.144730 0.079397 -0.095765 -169.334000 -2.000000 2.000000 0.000000 73.953499 3.245900 -156.330994 -108.974998 0.173569 0.110297 -0.056890 0.028158 -147.029007 -18.166317 15.579339 2.151061 78.297729 -20.696352 -12.375484 1.781308 15.718188 11.373867 -12.361808 -1.127527 21.314306 47.212757 15.440166 4.514235 -16.631079 0.306598 -9.169274 
-1.928319 40.572300 -1.561874 -6.751300 1.774720 -9.907220 -18.427999 -0.444874 2.761070 14.550400 -0.670129 1.310740 0.471871 3.658618 -1.197590 9.684332 1.090069 0.254411 2.000000 -2.000000 0.000000 -84.938400 21.406000 -167.744995 112.813004 -0.158053 0.144827 0.079987 -0.096686 -169.723999 -2.000000 2.000000 0.000000 74.764397 5.023260 -156.335999 -110.849998 0.169663 0.108883 -0.056459 0.025623 -146.110992 -18.698593 14.279039 2.464852 76.826195 -20.521656 -11.883260 1.419317 16.561367 11.304184 -12.697907 -1.864050 21.523483 46.682739 15.275130 4.363821 -15.604453 0.636089 -8.916198 
-1.811443 41.150707 -1.439065 -6.215350 2.155240 -10.215000 -18.601400 -0.518303 2.954930 14.706500 -0.757752 1.395990 0.383136 3.624424 -1.475109 9.679319 1.101454 0.117718 2.000000 -2.000000 0.000000 -85.086403 22.802299 -167.845993 113.085999 -0.157409 0.144554 0.079485 -0.095903 -169.391998 -2.000000 2.000000 0.000000 75.438698 5.717390 -156.686996 -113.115997 0.165008 0.107004 -0.056368 0.025056 -145.906006 -18.757353 12.845498 2.745202 73.767433 -20.045107 -10.889322 1.602615 16.467360 11.101853 -12.750546 -2.417669 21.663345 45.270096 14.759233 4.037232 -13.212084 1.232872 -8.406181 
-1.694577 41.729111 -1.316257 -5.679410 2.536330 -10.525300 -18.784401 -0.582125 3.146780 14.872400 -0.845432 1.480620 0.287405 3.599129 -1.764864 9.680037 1.119539 -0.029617 2.000000 -2.000000 0.000000 -85.234398 24.188700 -167.960007 113.349998 -0.156790 0.144288 0.078974 -0.095094 -169.050995 -2.000000 2.000000 0.000000 76.122803 6.421260 -157.026993 -115.371002 0.160451 0.104952 -0.056275 0.024462 -145.690994 -18.866016 11.418435 3.014359 70.734886 -19.546339 -9.913274 1.828463 16.362711 10.879302 -12.820889 -2.944793 21.801125 43.788696 14.241823 3.680953 -10.752715 1.848501 -7.898795 
-1.565939 42.387951 -1.158175 -4.925100 2.072400 -10.979200 -18.991400 -0.357698 3.468260 15.213800 -1.108450 1.675900 0.668210 3.423164 -2.019921 9.816350 1.029846 -0.143719 2.000000 -2.000000 0.000000 -85.108101 24.853500 -167.669006 113.731003 -0.155897 0.143899 0.078800 -0.085050 -168.932999 -2.000000 2.000000 0.000000 76.572304 6.343800 -157.330002 -117.471001 0.156285 0.102882 -0.056743 0.027323 -146.725998 -18.681118 10.846543 3.126522 67.030838 -18.807425 -8.785195 2.594616 15.720159 10.556106 -12.691772 -2.561070 21.881895 41.713848 13.522120 3.209856 -7.337848 2.347061 -7.391959 
-1.437300 43.046673 -1.000115 -4.171590 1.616800 -11.436200 -19.188000 -0.133610 3.788860 15.555200 -1.371710 1.868040 1.050905 3.250328 -2.266925 9.958440 0.948008 -0.259005 2.000000 -2.000000 0.000000 -84.972000 25.528000 -167.367996 114.101997 -0.155030 0.143515 0.078626 -0.084772 -168.815994 -2.000000 2.000000 0.000000 77.021698 6.266340 -157.632004 -119.570999 0.152197 0.100661 -0.057257 0.030148 -147.751999 -18.476215 10.246801 3.181167 63.495193 -18.064060 -7.724215 3.209227 15.067524 10.222147 -12.543385 -2.169364 21.973606 39.558128 12.783093 2.737382 -3.877635 2.885660 -6.899360 
